<svg width="1440" height="110" viewBox="0 0 1440 110" fill="none" xmlns="http://www.w3.org/2000/svg">
<g clip-path="url(#clip0_1207_9)">
<path d="M0 9.77058C96.576 9.77058 142.224 101.265 239.232 101.265C336.24 101.265 384.768 9.77058 479.904 9.77058C575.04 9.77058 625.296 101.265 720 101.265C814.704 101.265 867.024 9.77058 961.2 9.77058C1055.38 9.77058 1107.7 101.265 1200.91 101.265C1294.13 101.265 1344.53 9.77058 1440 9.77058" stroke="white" stroke-width="2"/>
<path d="M-8.7738e-05 5.17647C2.12069 5.17647 3.83991 2.85889 3.83991 2.86102e-06C3.83991 -2.85888 2.12069 -5.17647 -8.7738e-05 -5.17647C-2.12086 -5.17647 -3.84009 -2.85888 -3.84009 2.86102e-06C-3.84009 2.85889 -2.12086 5.17647 -8.7738e-05 5.17647Z" fill="white"/>
<path d="M0.000117302 3.88235C1.5907 3.88235 2.88012 2.14416 2.88012 -1.90735e-06C2.88012 -2.14417 1.5907 -3.88235 0.000117302 -3.88235C-1.59046 -3.88235 -2.87988 -2.14417 -2.87988 -1.90735e-06C-2.87988 2.14416 -1.59046 3.88235 0.000117302 3.88235Z" fill="white"/>
<path d="M7.82013e-05 2.58823C1.06047 2.58823 1.92008 1.42944 1.92008 -6.19888e-06C1.92008 -1.42945 1.06047 -2.58824 7.82013e-05 -2.58824C-1.06031 -2.58824 -1.91992 -1.42945 -1.91992 -6.19888e-06C-1.91992 1.42944 -1.06031 2.58823 7.82013e-05 2.58823Z" fill="white"/>
<path d="M7.82013e-05 2.58823C1.06047 2.58823 1.92008 1.42944 1.92008 -6.19888e-06C1.92008 -1.42945 1.06047 -2.58824 7.82013e-05 -2.58824C-1.06031 -2.58824 -1.91992 -1.42945 -1.91992 -6.19888e-06C-1.91992 1.42944 -1.06031 2.58823 7.82013e-05 2.58823Z" fill="white"/>
</g>
<defs>
<clipPath id="clip0_1207_9">
<rect width="1440" height="110" fill="white"/>
</clipPath>
</defs>
<script xmlns=""/></svg>